<svg width="130" height="33" viewBox="0 0 130 33" fill="none" xmlns="http://www.w3.org/2000/svg">
<path d="M23.0625 12H20.4375V10.3333C20.4375 9.40741 20.1641 8.62037 19.6172 7.97222C19.0703 7.32407 18.4062 7 17.625 7H14.8125C14.5469 7 14.3242 7.10648 14.1445 7.31944C13.9648 7.53241 13.875 7.7963 13.875 8.11111C13.875 8.42593 13.9648 8.68981 14.1445 8.90278C14.3242 9.11574 14.5469 9.22222 14.8125 9.22222H17.625C17.8906 9.22222 18.1133 9.3287 18.293 9.54167C18.4727 9.75463 18.5625 10.0185 18.5625 10.3333V12H5.4375V10.3333C5.4375 10.0185 5.52734 9.75463 5.70703 9.54167C5.88672 9.3287 6.10938 9.22222 6.375 9.22222H9.1875C9.45312 9.22222 9.67578 9.11574 9.85547 8.90278C10.0352 8.68981 10.125 8.42593 10.125 8.11111C10.125 7.7963 10.0352 7.53241 9.85547 7.31944C9.67578 7.10648 9.45312 7 9.1875 7H6.375C5.59375 7 4.92969 7.32407 4.38281 7.97222C3.83594 8.62037 3.5625 9.40741 3.5625 10.3333V12H0.9375C0.640625 12 0.398438 12.1389 0.210938 12.4167C0.0234375 12.6944 -0.0390625 13.0093 0.0234375 13.3611L2.88281 28.1389C2.92969 28.3981 3.03906 28.6065 3.21094 28.7639C3.38281 28.9213 3.57813 29 3.79688 29H20.2031C20.4219 29 20.6172 28.9213 20.7891 28.7639C20.9609 28.6065 21.0703 28.3981 21.1172 28.1389L23.9766 13.3611C24.0391 13.0093 23.9766 12.6944 23.7891 12.4167C23.6016 12.1389 23.3594 12 23.0625 12ZM19.4531 26.7778H4.54688L2.10938 14.2222H21.8906L19.4531 26.7778ZM10.5938 17.7222V23.2778C10.5938 23.5926 10.5039 23.8565 10.3242 24.0694C10.1445 24.2824 9.92187 24.3889 9.65625 24.3889C9.39063 24.3889 9.16797 24.2824 8.98828 24.0694C8.80859 23.8565 8.71875 23.5926 8.71875 23.2778V17.7222C8.71875 17.4074 8.80859 17.1435 8.98828 16.9306C9.16797 16.7176 9.39063 16.6111 9.65625 16.6111C9.92187 16.6111 10.1445 16.7176 10.3242 16.9306C10.5039 17.1435 10.5938 17.4074 10.5938 17.7222ZM15.2812 17.7222V23.2778C15.2812 23.5926 15.1914 23.8565 15.0117 24.0694C14.832 24.2824 14.6094 24.3889 14.3438 24.3889C14.0781 24.3889 13.8555 24.2824 13.6758 24.0694C13.4961 23.8565 13.4062 23.5926 13.4062 23.2778V17.7222C13.4062 17.4074 13.4961 17.1435 13.6758 16.9306C13.8555 16.7176 14.0781 16.6111 14.3438 16.6111C14.6094 16.6111 14.832 16.7176 15.0117 16.9306C15.1914 17.1435 15.2812 17.4074 15.2812 17.7222Z" fill="#1B2336"/>
<rect x="14.5" width="20" height="20" rx="10" fill="#2AAA94"/>
<path d="M25.6098 10.499C25.6098 9.72103 25.4796 9.14323 25.2192 8.76562C24.9621 8.38802 24.6024 8.19922 24.1401 8.19922C23.6811 8.19922 23.3247 8.38639 23.0708 8.76074C22.8169 9.13509 22.6899 9.71452 22.6899 10.499C22.6899 11.277 22.8169 11.8548 23.0708 12.2324C23.3247 12.61 23.6811 12.7988 24.1401 12.7988C24.3712 12.7988 24.5779 12.7533 24.7602 12.6621C24.9425 12.5677 25.0955 12.4261 25.2192 12.2373C25.3462 12.0485 25.4422 11.8109 25.5073 11.5244C25.5757 11.2347 25.6098 10.8929 25.6098 10.499ZM26.9429 10.499C26.9429 11.1631 26.8696 11.7246 26.7231 12.1836C26.5766 12.6426 26.3764 13.0137 26.1225 13.2969C25.8686 13.5801 25.5708 13.7852 25.229 13.9121C24.8904 14.0358 24.5275 14.0977 24.1401 14.0977C23.7527 14.0977 23.3882 14.0342 23.0464 13.9072C22.7078 13.777 22.4116 13.5703 22.1577 13.2871C21.907 13.0007 21.7085 12.6296 21.562 12.1738C21.4155 11.7148 21.3423 11.1566 21.3423 10.499C21.3423 9.83496 21.4155 9.27507 21.562 8.81934C21.7085 8.36035 21.907 7.98926 22.1577 7.70605C22.4116 7.42285 22.7078 7.21777 23.0464 7.09082C23.3882 6.96387 23.7527 6.90039 24.1401 6.90039C24.5275 6.90039 24.8904 6.96549 25.229 7.0957C25.5708 7.22266 25.8686 7.42936 26.1225 7.71582C26.3764 8.00228 26.5766 8.37337 26.7231 8.8291C26.8696 9.28483 26.9429 9.84147 26.9429 10.499Z" fill="white"/>
<g clip-path="url(#clip0_1_30)">
<path d="M64.5 7.5C62.8438 7.5 61.2891 7.8125 59.8359 8.4375C58.3828 9.07812 57.1133 9.94141 56.0273 11.0273C54.9414 12.1133 54.0781 13.3828 53.4375 14.8359C52.8125 16.2891 52.5 17.8438 52.5 19.5C52.5 21.1562 52.8125 22.7109 53.4375 24.1641C54.0781 25.6172 54.9414 26.8867 56.0273 27.9727C57.1133 29.0586 58.3828 29.9219 59.8359 30.5625C61.2891 31.1875 62.8438 31.5 64.5 31.5C66.1562 31.5 67.7109 31.1875 69.1641 30.5625C70.6172 29.9219 71.8867 29.0586 72.9727 27.9727C74.0586 26.8867 74.9219 25.6172 75.5625 24.1641C76.1875 22.7109 76.5 21.1562 76.5 19.5C76.5 17.8438 76.1875 16.2891 75.5625 14.8359C74.9219 13.3828 74.0586 12.1133 72.9727 11.0273C71.8867 9.94141 70.6172 9.07812 69.1641 8.4375C67.7109 7.8125 66.1562 7.5 64.5 7.5ZM64.5 29.6016C63.1094 29.6016 61.7969 29.3359 60.5625 28.8047C59.3438 28.2734 58.2773 27.5508 57.3633 26.6367C56.4492 25.7227 55.7266 24.6562 55.1953 23.4375C54.6641 22.2031 54.3984 20.8906 54.3984 19.5C54.3984 18.1094 54.6641 16.7969 55.1953 15.5625C55.7266 14.3438 56.4492 13.2773 57.3633 12.3633C58.2773 11.4492 59.3438 10.7266 60.5625 10.1953C61.7969 9.66406 63.1094 9.39844 64.5 9.39844C65.8906 9.39844 67.2031 9.66406 68.4375 10.1953C69.6562 10.7266 70.7227 11.4492 71.6367 12.3633C72.5508 13.2773 73.2734 14.3438 73.8047 15.5625C74.3359 16.7969 74.6016 18.1094 74.6016 19.5C74.6016 20.8906 74.3359 22.2031 73.8047 23.4375C73.2734 24.6562 72.5508 25.7227 71.6367 26.6367C70.7227 27.5508 69.6562 28.2734 68.4375 28.8047C67.2031 29.3359 65.8906 29.6016 64.5 29.6016ZM64.5 21.6328C63.6562 21.6328 62.8281 21.7344 62.0156 21.9375C61.2031 22.1562 60.4219 22.4648 59.6719 22.8633C58.9219 23.2617 58.2031 23.7578 57.5156 24.3516C56.8281 24.9453 56.1953 25.625 55.6172 26.3906L57.1172 27.5391C57.6172 26.8984 58.1484 26.3281 58.7109 25.8281C59.2891 25.3281 59.8906 24.9062 60.5156 24.5625C61.1406 24.2188 61.7891 23.9609 62.4609 23.7891C63.1328 23.6172 63.8125 23.5312 64.5 23.5312C65.1875 23.5312 65.8672 23.6172 66.5391 23.7891C67.2109 23.9609 67.8594 24.2188 68.4844 24.5625C69.1094 24.9062 69.7109 25.3281 70.2891 25.8281C70.8516 26.3281 71.3828 26.8984 71.8828 27.5391L73.3828 26.3906C72.8047 25.625 72.1719 24.9453 71.4844 24.3516C70.7969 23.7578 70.0781 23.2617 69.3281 22.8633C68.5781 22.4648 67.7969 22.1562 66.9844 21.9375C66.1719 21.7344 65.3438 21.6328 64.5 21.6328ZM64.5 11.8125C63.8125 11.8125 63.1719 11.9375 62.5781 12.1875C61.9844 12.4531 61.4609 12.8125 61.0078 13.2656C60.5547 13.7188 60.2031 14.2422 59.9531 14.8359C59.6875 15.4453 59.5547 16.0938 59.5547 16.7812C59.5547 17.4688 59.6875 18.1094 59.9531 18.7031C60.2031 19.3125 60.5547 19.8438 61.0078 20.2969C61.4609 20.75 61.9844 21.1016 62.5781 21.3516C63.1719 21.6172 63.8125 21.75 64.5 21.75C65.1875 21.75 65.8281 21.6172 66.4219 21.3516C67.0156 21.1016 67.5391 20.75 67.9922 20.2969C68.4453 19.8438 68.7969 19.3125 69.0469 18.7031C69.3125 18.1094 69.4453 17.4688 69.4453 16.7812C69.4453 16.0938 69.3125 15.4453 69.0469 14.8359C68.7969 14.2422 68.4453 13.7188 67.9922 13.2656C67.5391 12.8125 67.0156 12.4531 66.4219 12.1875C65.8281 11.9375 65.1875 11.8125 64.5 11.8125ZM64.5 19.8516C63.6562 19.8516 62.9375 19.5508 62.3438 18.9492C61.75 18.3477 61.4531 17.625 61.4531 16.7812C61.4531 15.9375 61.75 15.2148 62.3438 14.6133C62.9375 14.0117 63.6562 13.7109 64.5 13.7109C65.3438 13.7109 66.0625 14.0117 66.6562 14.6133C67.25 15.2148 67.5469 15.9375 67.5469 16.7812C67.5469 17.625 67.25 18.3477 66.6562 18.9492C66.0625 19.5508 65.3438 19.8516 64.5 19.8516Z" fill="#1B2336"/>
</g>
<g clip-path="url(#clip1_1_30)">
<path d="M116.011 8C114.497 8 113.073 8.28483 111.738 8.85449C110.387 9.44043 109.215 10.2298 108.223 11.2227C107.23 12.2155 106.44 13.3874 105.854 14.7383C105.285 16.0729 105 17.4971 105 19.0107C105 20.5244 105.285 21.9486 105.854 23.2832C106.44 24.6178 107.23 25.7856 108.223 26.7866C109.215 27.7876 110.387 28.5729 111.738 29.1426C113.073 29.7285 114.497 30.0215 116.011 30.0215C117.524 30.0215 118.949 29.7285 120.283 29.1426C121.618 28.5729 122.786 27.7876 123.787 26.7866C124.788 25.7856 125.573 24.6178 126.143 23.2832C126.729 21.9486 127.021 20.5244 127.021 19.0107C127.021 17.4971 126.729 16.0729 126.143 14.7383C125.573 13.3874 124.788 12.2155 123.787 11.2227C122.786 10.2298 121.618 9.44043 120.283 8.85449C118.949 8.28483 117.524 8 116.011 8ZM116.011 27.9951C114.774 27.9951 113.61 27.7591 112.52 27.2871C111.429 26.8151 110.477 26.1722 109.663 25.3584C108.849 24.5446 108.206 23.5924 107.734 22.502C107.262 21.4115 107.026 20.2477 107.026 19.0107C107.026 17.7738 107.262 16.61 107.734 15.5195C108.206 14.429 108.849 13.4769 109.663 12.6631C110.477 11.8493 111.429 11.2064 112.52 10.7344C113.61 10.2624 114.774 10.0264 116.011 10.0264C117.248 10.0264 118.411 10.2624 119.502 10.7344C120.592 11.2064 121.545 11.8493 122.358 12.6631C123.172 13.4769 123.815 14.429 124.287 15.5195C124.759 16.61 124.995 17.7738 124.995 19.0107C124.995 20.2477 124.759 21.4115 124.287 22.502C123.815 23.5924 123.172 24.5446 122.358 25.3584C121.545 26.1722 120.592 26.8151 119.502 27.2871C118.411 27.7591 117.248 27.9951 116.011 27.9951ZM129.707 31.2666L123.872 25.4316C123.677 25.2363 123.437 25.1387 123.152 25.1387C122.867 25.1387 122.627 25.2363 122.432 25.4316C122.236 25.627 122.139 25.867 122.139 26.1519C122.139 26.4367 122.236 26.6768 122.432 26.8721L128.267 32.707C128.364 32.8047 128.474 32.8779 128.596 32.9268C128.718 32.9756 128.844 33 128.975 33C129.105 33 129.235 32.9756 129.365 32.9268C129.495 32.8779 129.609 32.8047 129.707 32.707C129.902 32.5117 130 32.2716 130 31.9868C130 31.702 129.902 31.4619 129.707 31.2666Z" fill="#1B2336"/>
</g>
<defs>
<clipPath id="clip0_1_30">
<rect width="24" height="25" fill="white" transform="matrix(1 0 0 -1 52.5 32)"/>
</clipPath>
<clipPath id="clip1_1_30">
<rect width="25" height="25" fill="white" transform="matrix(1 0 0 -1 105 33)"/>
</clipPath>
</defs>
</svg>
