<svg width="269" height="338" viewBox="0 0 269 338" fill="none" xmlns="http://www.w3.org/2000/svg">
<path opacity="0.3" d="M212.336 24.7979C213.703 25.7699 215.052 26.7669 216.381 27.7881L215.468 28.9776C216.783 29.9883 218.079 31.023 219.354 32.0811L220.312 30.9268C221.603 31.9977 222.872 33.0934 224.122 34.211L223.124 35.3282C224.36 36.4337 225.576 37.5615 226.771 38.712L227.809 37.6329C229.016 38.7966 230.202 39.9827 231.366 41.1905L230.288 42.2295C231.439 43.4236 232.566 44.6397 233.672 45.876L234.788 44.877C235.906 46.1267 237.001 47.3964 238.072 48.6875L236.919 49.6455C237.977 50.9213 239.012 52.2171 240.022 53.5323L241.211 52.6182C242.232 53.9471 243.229 55.2956 244.201 56.6631L244.202 56.6631L242.979 57.5323C243.94 58.883 244.876 60.2532 245.786 61.6407L247.038 60.8174C247.957 62.2187 248.851 63.6382 249.719 65.0752L248.437 65.8506C249.293 67.2685 250.124 68.7035 250.928 70.1553L252.237 69.4297C253.049 70.8946 253.833 72.3763 254.591 73.8741L253.255 74.5508C254.002 76.0285 254.724 77.5217 255.417 79.0303L256.777 78.4043C257.477 79.926 258.148 81.4631 258.791 83.0147L257.408 83.5899C258.042 85.1191 258.649 86.6624 259.228 88.2198L260.631 87.6983C261.213 89.2668 261.767 90.8489 262.292 92.4444L260.869 92.9122C261.386 94.4836 261.875 96.0684 262.334 97.6651L263.772 97.25C264.235 98.8588 264.67 100.48 265.073 102.112L263.618 102.472C264.015 104.078 264.384 105.696 264.722 107.324L266.188 107.02C266.528 108.655 266.838 110.302 267.117 111.959L265.641 112.209C265.916 113.838 266.161 115.478 266.376 117.127L267.861 116.933C268.078 118.591 268.264 120.259 268.419 121.936L266.928 122.073C267.08 123.719 267.202 125.374 267.294 127.037L268.789 126.954C268.881 128.62 268.943 130.294 268.974 131.976L267.478 132.003C267.493 132.833 267.5 133.666 267.5 134.5L267.5 137.044L269 137.044L269 142.131L267.5 142.131L267.5 147.219L269 147.219L269 152.307L267.5 152.307L267.5 157.394L269 157.394L269 162.481L267.5 162.481L267.5 167.568L269 167.568L269 172.656L267.5 172.656L267.5 177.744L269 177.744L269 182.831L267.5 182.831L267.5 187.919L269 187.919L269 193.006L267.5 193.006L267.5 198.094L269 198.094L269 203.182L267.5 203.182L267.5 208.269L269 208.269L269 213.356L267.5 213.356L267.5 218.443L269 218.443L269 223.531L267.5 223.531L267.5 228.619L269 228.619L269 233.706L267.5 233.706L267.5 238.794L269 238.794L269 243.881L267.5 243.881L267.5 248.969L269 248.969L269 254.057L267.5 254.057L267.5 259.144L269 259.144L269 264.231L267.5 264.231L267.5 269.318L269 269.318L269 274.406L267.5 274.406L267.5 279.494L269 279.494L269 284.581L267.5 284.581L267.5 289.669L269 289.669L269 294.756L267.5 294.756L267.5 299.844L269 299.844L269 304.932L267.5 304.932L267.5 310.019L269 310.019L269 315.106L267.5 315.106L267.5 320.193L269 320.193L269 325.281L267.5 325.281L267.5 330.368L269 330.368L269 335.456L267.5 335.456L267.5 336.5L266.51 336.5L266.51 338L261.528 338L261.528 336.5L256.546 336.5L256.546 338L251.564 338L251.564 336.5L246.583 336.5L246.583 338L241.602 338L241.602 336.5L236.62 336.5L236.62 338L231.639 338L231.639 336.5L226.657 336.5L226.657 338L221.676 338L221.676 336.5L216.694 336.5L216.694 338L211.713 338L211.713 336.5L206.731 336.5L206.731 338L201.75 338L201.75 336.5L196.768 336.5L196.768 338L191.787 338L191.787 336.5L186.806 336.5L186.806 338L181.824 338L181.824 336.5L176.843 336.5L176.843 338L171.861 338L171.861 336.5L166.88 336.5L166.88 338L161.898 338L161.898 336.5L156.917 336.5L156.917 338L151.935 338L151.935 336.5L146.954 336.5L146.954 338L141.973 338L141.973 336.5L136.991 336.5L136.991 338L132.01 338L132.01 336.5L127.027 336.5L127.027 338L122.046 338L122.046 336.5L117.064 336.5L117.064 338L112.083 338L112.083 336.5L107.102 336.5L107.102 338L102.12 338L102.12 336.5L97.1386 336.5L97.1386 338L92.1572 338L92.1572 336.5L87.1757 336.5L87.1757 338L82.1943 338L82.1943 336.5L77.2128 336.5L77.2128 338L72.2314 338L72.2314 336.5L67.2499 336.5L67.2499 338L62.2685 338L62.2685 336.5L57.2871 336.5L57.2871 338L52.3056 338L52.3056 336.5L47.3242 336.5L47.3242 338L42.3427 338L42.3427 336.5L37.3613 336.5L37.3613 338L32.3798 338L32.3798 336.5L27.3984 336.5L27.3984 338L22.4169 338L22.4169 336.5L17.4355 336.5L17.4355 338L12.454 338L12.454 336.5L7.4726 336.5L7.4726 338L2.49115 338L2.49115 336.5L1.49994 336.5L1.49994 335.456L-5.8653e-05 335.456L-5.77636e-05 330.369L1.49994 330.369L1.49994 325.281L-5.6874e-05 325.281L-5.59844e-05 320.193L1.49994 320.193L1.49994 315.106L-5.5095e-05 315.106L-5.42054e-05 310.019L1.49995 310.019L1.49995 304.932L-5.33159e-05 304.932L-5.24264e-05 299.844L1.49995 299.844L1.49995 294.756L-5.15368e-05 294.756L-5.06473e-05 289.669L1.49995 289.669L1.49995 284.581L-4.97577e-05 284.581L-4.88683e-05 279.494L1.49995 279.494L1.49995 274.406L-4.79787e-05 274.406L-4.70891e-05 269.318L1.49995 269.318L1.49995 264.231L-4.61997e-05 264.231L-4.53101e-05 259.144L1.49995 259.144L1.49996 254.057L-4.44207e-05 254.057L-4.35311e-05 248.969L1.49996 248.969L1.49996 243.881L-4.26415e-05 243.881L-4.17521e-05 238.794L1.49996 238.794L1.49996 233.706L-4.08625e-05 233.706L-3.9973e-05 228.619L1.49996 228.619L1.49996 223.531L-3.90834e-05 223.531L-3.81939e-05 218.443L1.49996 218.443L1.49996 213.356L-3.73044e-05 213.356L-3.64148e-05 208.269L1.49996 208.269L1.49996 203.182L-3.55254e-05 203.182L-3.46358e-05 198.094L1.49997 198.094L1.49997 193.006L-3.37462e-05 193.006L-3.28568e-05 187.919L1.49997 187.919L1.49997 182.831L-3.19672e-05 182.831L-3.10778e-05 177.744L1.49997 177.744L1.49997 172.656L-3.01882e-05 172.656L-2.92986e-05 167.568L1.49997 167.568L1.49997 162.481L-2.84092e-05 162.481L-2.75196e-05 157.394L1.49997 157.394L1.49997 152.307L-2.66301e-05 152.307L-2.57405e-05 147.219L1.49997 147.219L1.49998 142.131L-2.4851e-05 142.131L-2.39615e-05 137.044L1.49998 137.044L1.49998 134.5C1.49998 133.666 1.50813 132.833 1.52341 132.003L0.0253675 131.976C0.056321 130.294 0.117807 128.62 0.209939 126.954L1.70603 127.037C1.79799 125.374 1.91976 123.719 2.07224 122.073L0.581033 121.936C0.736373 120.259 0.922324 118.591 1.13865 116.933L2.624 117.127C2.83911 115.478 3.08442 113.838 3.35936 112.209L1.88182 111.959C2.16141 110.302 2.47093 108.655 2.81053 107.02L4.2783 107.324C4.6164 105.696 4.98475 104.078 5.38182 102.472L3.92576 102.112C4.32935 100.48 4.76394 98.8594 5.22655 97.251L6.666 97.665C7.12525 96.0683 7.61399 94.4836 8.13084 92.9121L6.70799 92.4443C7.23272 90.849 7.78596 89.2666 8.36815 87.6982L9.77245 88.2197C10.3505 86.6624 10.9576 85.1191 11.5918 83.5898L10.208 83.0147C10.8514 81.4631 11.5225 79.9259 12.2217 78.4043L13.584 79.0303C14.2772 77.5217 14.9977 76.0283 15.7451 74.5508L14.4072 73.875C15.165 72.3769 15.9502 70.895 16.7617 69.4297L18.0723 70.1553C18.8763 68.7035 19.7073 67.2685 20.5635 65.8506L19.2803 65.0752C20.148 63.6382 21.0416 62.2186 21.9609 60.8174L23.2139 61.6406C24.1241 60.2531 25.0604 58.883 26.0205 57.5322L24.7978 56.6631C25.7699 55.2956 26.7669 53.9471 27.7881 52.6182L28.9775 53.5322C29.9882 52.217 31.0229 50.9212 32.081 49.6455L30.9267 48.6875C31.9976 47.3964 33.0933 46.1267 34.2109 44.877L35.3281 45.876C36.4337 44.6397 37.5614 43.4235 38.7119 42.2295L37.6328 41.1904C38.7965 39.9826 39.9826 38.7965 41.1904 37.6328L42.2295 38.7119C43.4235 37.5614 44.6397 36.4337 45.876 35.3281L44.8769 34.2109C46.1267 33.0934 47.3964 31.9977 48.6875 30.9268L49.6455 32.0811C50.9212 31.0229 52.217 29.9882 53.5322 28.9775L52.6182 27.7881C53.9395 26.7727 55.2802 25.7812 56.6396 24.8145L56.6631 24.7979L57.5322 26.0205C58.883 25.0604 60.2531 24.1242 61.6406 23.2139L60.8174 21.9609C62.2186 21.0416 63.6382 20.148 65.0752 19.2803L65.8506 20.5635C67.2685 19.7073 68.7035 18.8763 70.1553 18.0723L69.4297 16.7617C70.895 15.9502 72.3769 15.165 73.875 14.4072L74.5508 15.7451C76.0283 14.9978 77.5217 14.2772 79.0303 13.584L78.4043 12.2217C79.9259 11.5225 81.4631 10.8515 83.0146 10.208L83.5898 11.5918C85.119 10.9577 86.6624 10.3506 88.2197 9.77248L87.6982 8.36818C89.2666 7.78599 90.8489 7.23275 92.4443 6.70802L92.9121 8.13088C94.4836 7.61402 96.0683 7.12528 97.665 6.66603L97.251 5.22658C98.8594 4.76397 100.48 4.32939 102.112 3.9258L102.472 5.38185C104.078 4.98479 105.696 4.61644 107.324 4.27834L107.02 2.81057C108.655 2.47096 110.302 2.16145 111.959 1.88186L112.209 3.35939C113.838 3.08446 115.478 2.83915 117.127 2.62404L116.933 1.13869C118.591 0.922366 120.259 0.736415 121.936 0.581076L122.073 2.07229C123.719 1.91981 125.374 1.79803 127.037 1.70608L126.954 0.209983C128.62 0.117852 130.294 0.0563668 131.976 0.0254137L132.003 1.52346C132.833 1.50817 133.666 1.50002 134.5 1.50002C135.334 1.50002 136.167 1.50818 136.997 1.52346L137.023 0.0254146C138.705 0.0563556 140.379 0.117867 142.045 0.209986L141.963 1.70608C143.626 1.79804 145.281 1.91981 146.927 2.07229L147.063 0.58108C148.74 0.736408 150.408 0.922384 152.066 1.1387L151.873 2.62405C153.522 2.83915 155.162 3.08447 156.791 3.3594L157.04 1.88186C158.697 2.16144 160.344 2.47098 161.979 2.81058L161.676 4.27835C163.304 4.61645 164.922 4.9848 166.528 5.38187L166.887 3.92581C168.519 4.32939 170.14 4.76399 171.748 5.22659L171.335 6.66605C172.932 7.12529 174.516 7.61404 176.088 8.13089L176.555 6.70804C178.15 7.23276 179.732 7.78602 181.301 8.3682L180.78 9.77249C182.338 10.3506 183.881 10.9577 185.41 11.5918L185.984 10.208C187.536 10.8515 189.073 11.5225 190.595 12.2217L189.97 13.584C191.478 14.2772 192.972 14.9978 194.449 15.7452L195.125 14.4082C196.623 15.1658 198.104 15.9504 199.569 16.7618L198.845 18.0723C200.297 18.8764 201.732 19.7073 203.149 20.5635L203.924 19.2803C205.361 20.148 206.78 21.0417 208.182 21.961L207.359 23.2139C208.747 24.1242 210.117 25.0604 211.468 26.0205L212.336 24.7979Z" stroke="white" stroke-width="3" stroke-dasharray="5 5"/>
</svg>
